<?xml version="1.0" standalone="no"?>
<!DOCTYPE svg PUBLIC "-//W3C//DTD SVG 20010904//EN"
 "http://www.w3.org/TR/2001/REC-SVG-20010904/DTD/svg10.dtd">
<svg version="1.0" xmlns="http://www.w3.org/2000/svg"
 width="640.000000pt" height="1280.000000pt" viewBox="0 0 640.000000 1280.000000"
 preserveAspectRatio="xMidYMid meet">
<g transform="translate(0.000000,1280.000000) scale(0.100000,-0.100000)"
fill="#000000" stroke="none">
<path d="M2820 12734 c-36 -35 -72 -63 -80 -61 -10 1 -17 18 -20 47 -4 36 -9
46 -26 48 -34 5 -80 -57 -94 -125 -19 -97 -25 -106 -68 -100 -20 3 -48 9 -61
13 -22 7 -23 5 -17 -17 4 -13 10 -48 13 -76 7 -64 -6 -83 -54 -83 -43 0 -79
-19 -123 -65 l-35 -37 28 -22 c15 -12 27 -26 27 -31 -1 -6 -27 -39 -60 -75
l-59 -65 -138 -7 c-76 -3 -205 -9 -288 -13 -92 -5 -171 -3 -205 3 -34 6 -74 7
-105 2 -27 -5 -89 -14 -136 -20 -144 -18 -172 -31 -241 -119 -81 -101 -99
-144 -100 -234 0 -107 17 -151 257 -652 61 -127 182 -271 306 -365 136 -102
311 -173 459 -186 64 -6 67 -5 220 64 121 55 171 84 227 131 43 36 78 58 87
55 8 -3 37 -31 65 -63 27 -32 64 -64 80 -71 39 -16 39 -35 1 -88 -33 -44 -36
-46 -124 -61 -83 -15 -138 -51 -236 -152 -80 -83 -89 -89 -150 -104 -138 -35
-360 -162 -442 -254 -24 -26 -93 -117 -155 -202 -61 -85 -152 -203 -203 -264
-145 -175 -190 -293 -170 -447 21 -155 171 -307 347 -353 31 -8 60 -20 63 -25
4 -6 12 -61 19 -123 33 -304 45 -391 72 -495 16 -62 41 -185 54 -275 48 -309
74 -420 146 -600 25 -63 39 -114 39 -143 0 -61 -24 -174 -66 -308 -74 -235
-194 -718 -234 -942 -11 -65 -52 -263 -90 -439 -37 -176 -78 -378 -89 -450
-36 -221 -41 -246 -82 -380 -52 -169 -74 -271 -94 -430 -9 -71 -30 -182 -45
-245 -57 -228 -108 -532 -180 -1080 -48 -365 -72 -522 -111 -736 -17 -94 -29
-196 -29 -244 0 -108 -19 -234 -86 -558 -54 -265 -66 -376 -42 -400 7 -7 40
-12 76 -12 49 0 70 -5 89 -20 20 -15 41 -20 90 -20 80 0 130 -20 139 -55 3
-14 1 -61 -6 -104 -7 -42 -10 -90 -6 -105 6 -26 9 -27 51 -20 40 6 52 2 106
-30 48 -28 71 -36 110 -36 27 0 75 -10 107 -21 31 -12 86 -25 122 -31 76 -11
154 -45 158 -71 2 -9 -15 -38 -39 -65 -48 -54 -86 -129 -72 -143 6 -6 51 -6
117 0 121 12 227 48 355 123 l73 42 42 -24 c35 -19 51 -22 90 -16 33 5 61 2
98 -10 36 -12 64 -14 97 -9 74 11 103 8 161 -19 61 -28 100 -32 133 -14 15 9
81 13 203 14 170 1 184 3 246 28 58 23 80 26 183 26 104 0 121 3 165 25 61 31
95 31 168 1 31 -13 85 -29 120 -36 42 -9 87 -28 139 -61 94 -59 161 -82 323
-109 68 -11 129 -25 134 -30 6 -6 67 -10 136 -10 110 0 129 2 143 18 24 27 21
47 -14 86 -17 20 -28 40 -25 45 3 5 30 12 59 15 43 6 68 17 123 57 114 83 217
138 274 149 30 6 70 21 90 34 19 13 52 32 73 41 21 10 55 38 75 62 20 24 54
55 74 70 46 31 47 44 14 191 -29 130 -43 202 -100 542 -25 146 -62 344 -81
440 -19 96 -69 364 -110 595 -94 524 -132 718 -200 1011 -60 258 -149 693
-285 1399 -91 468 -149 747 -175 838 -8 26 -31 84 -51 129 -30 66 -41 109 -56
213 -10 71 -31 171 -47 220 -16 50 -36 137 -46 195 -9 58 -25 141 -35 185 -10
44 -28 120 -40 169 -12 49 -50 165 -85 257 -84 222 -104 296 -116 436 -18 214
-66 438 -125 583 -39 96 -44 269 -15 552 12 117 24 223 27 235 5 24 54 43 113
43 23 0 58 14 100 39 36 22 107 55 156 74 180 69 291 152 345 257 62 122 40
307 -56 463 -33 54 -35 60 -20 76 20 22 21 83 1 122 -9 16 -60 62 -113 101
-53 39 -122 95 -152 123 -72 67 -150 116 -290 183 -63 30 -116 56 -118 57 -10
9 17 39 50 56 22 11 38 25 35 32 -6 21 -166 115 -232 137 -65 22 -67 24 -80
90 -10 49 -40 104 -81 150 l-35 39 96 108 c140 156 257 343 295 471 20 64 35
71 60 29 33 -56 105 -90 114 -54 2 6 13 44 26 83 17 50 21 84 18 118 -5 44 -4
48 21 57 36 14 81 59 81 81 0 10 -11 24 -25 30 -14 6 -25 17 -25 24 0 7 -14
29 -31 49 l-32 36 32 27 c31 26 32 31 41 132 5 58 7 107 5 109 -8 8 -64 -21
-86 -45 -30 -32 -39 -30 -39 9 0 49 -28 148 -53 185 -12 18 -51 51 -87 74 -57
37 -75 42 -168 54 -113 15 -124 20 -194 75 -113 89 -240 125 -407 115 -102 -6
-160 -23 -224 -68 -17 -12 -25 -6 -79 52 -75 81 -101 131 -102 193 0 27 -4 46
-10 46 -6 -1 -40 -30 -76 -65z m-301 -4249 c21 -60 49 -138 62 -171 l23 -61
-101 -154 c-55 -85 -120 -189 -143 -231 -23 -43 -48 -78 -55 -78 -7 0 -21 19
-31 43 -15 34 -19 71 -20 197 0 85 -6 214 -13 285 -7 72 -11 162 -9 200 l3 70
93 -3 c51 -1 100 2 110 8 9 5 23 9 30 7 8 -1 31 -51 51 -112z"/>
</g>
</svg>
