<?xml version="1.0" standalone="no"?>
<!DOCTYPE svg PUBLIC "-//W3C//DTD SVG 20010904//EN"
 "http://www.w3.org/TR/2001/REC-SVG-20010904/DTD/svg10.dtd">
<svg version="1.0" xmlns="http://www.w3.org/2000/svg"
 width="988.000000pt" height="1280.000000pt" viewBox="0 0 988.000000 1280.000000"
 preserveAspectRatio="xMidYMid meet">
<g transform="translate(0.000000,1280.000000) scale(0.100000,-0.100000)"
fill="#000000" stroke="none">
<path d="M970 9485 c0 -19 17 -74 39 -122 57 -129 91 -225 91 -255 0 -15 12
-41 26 -58 15 -17 85 -162 156 -322 71 -161 169 -376 218 -478 50 -103 90
-192 90 -199 0 -6 11 -28 24 -49 33 -53 126 -265 126 -288 0 -11 -13 -27 -30
-38 -45 -26 -56 -51 -69 -156 -11 -80 -18 -103 -47 -145 -37 -55 -41 -80 -19
-109 8 -11 15 -34 15 -51 0 -44 74 -111 187 -169 50 -26 117 -66 148 -88 56
-40 57 -41 51 -80 -4 -22 -18 -72 -32 -111 -79 -219 -117 -334 -146 -442 -29
-111 -32 -132 -32 -285 -1 -151 1 -169 21 -210 27 -54 82 -93 172 -120 79 -25
139 -25 404 0 534 51 680 73 912 140 330 96 409 70 422 -135 4 -61 2 -83 -8
-92 -18 -14 -120 -43 -153 -43 -32 0 -32 -1 0 -81 14 -35 32 -94 39 -131 13
-61 12 -72 -6 -122 -33 -94 -40 -185 -29 -345 10 -147 42 -318 83 -441 14 -41
24 -107 29 -180 17 -262 25 -347 38 -375 7 -16 16 -74 20 -127 6 -79 12 -105
35 -143 19 -33 25 -54 21 -72 -4 -13 -1 -40 5 -58 10 -26 10 -37 0 -48 -7 -9
-9 -29 -5 -54 4 -29 2 -42 -10 -52 -12 -10 -15 -23 -10 -46 10 -56 -16 -72
-132 -80 -55 -4 -144 -13 -199 -21 -127 -19 -275 -29 -306 -21 -13 4 -49 25
-79 48 -53 40 -57 41 -112 36 -43 -4 -73 -15 -120 -43 -62 -38 -248 -208 -248
-227 0 -5 30 20 67 57 97 94 165 142 229 161 64 18 110 9 154 -30 14 -12 35
-28 47 -34 12 -6 28 -23 35 -38 7 -15 24 -33 38 -40 14 -7 24 -20 22 -29 -2
-8 2 -22 9 -30 6 -8 7 -14 1 -14 -5 0 -15 7 -23 16 -19 23 -65 44 -97 44 -16
0 -47 -12 -68 -28 -45 -30 -148 -139 -184 -192 -41 -60 -205 -254 -240 -283
-18 -15 -46 -35 -63 -43 -23 -12 -27 -18 -16 -25 8 -5 22 -6 32 -3 29 9 30
-22 2 -91 -14 -37 -24 -69 -22 -72 3 -2 22 30 43 73 45 90 64 106 162 139 40
13 121 47 180 75 60 27 113 50 118 50 6 0 19 -6 29 -14 18 -13 15 -19 -55
-112 -149 -200 -240 -282 -391 -354 -80 -37 -58 -51 44 -26 80 19 98 12 79
-29 -18 -38 -14 -55 5 -20 25 49 54 75 123 111 36 19 79 44 96 55 25 15 37 17
58 9 15 -5 29 -16 32 -25 6 -15 -31 -81 -119 -215 -123 -186 -142 -210 -191
-241 -26 -16 -28 -19 -12 -25 35 -13 224 58 316 119 25 17 83 58 130 92 101
74 117 81 139 60 9 -9 33 -27 54 -40 36 -24 38 -24 32 -5 -6 18 -2 20 37 20
81 0 158 19 243 59 83 39 218 122 230 142 12 18 42 9 71 -22 16 -17 41 -37 56
-45 42 -22 43 -47 7 -122 -50 -105 -80 -147 -134 -189 -52 -41 -120 -73 -156
-73 -11 0 -17 -5 -14 -10 9 -15 87 -12 135 5 96 34 242 142 300 223 17 23 42
48 55 54 13 6 22 14 20 18 -5 9 21 78 37 98 8 9 17 8 42 -7 17 -11 56 -32 86
-47 80 -39 129 -75 199 -143 80 -79 139 -110 227 -117 38 -4 84 -13 101 -21
49 -23 100 -10 123 30 11 18 42 49 69 70 115 88 174 170 247 340 60 139 97
148 230 55 22 -14 84 -75 139 -134 173 -186 179 -189 302 -189 67 1 86 4 103
20 34 31 41 51 46 133 6 126 14 161 39 188 28 30 32 29 143 -26 89 -43 144
-80 303 -201 106 -81 259 -168 321 -183 14 -3 37 -2 50 3 22 8 21 9 -18 29
-53 27 -129 111 -184 203 -24 41 -56 91 -72 113 -30 42 -29 46 21 106 l29 34
94 -62 c52 -34 97 -62 102 -62 4 0 26 -8 49 -19 23 -10 63 -21 88 -24 45 -6
47 -5 78 33 29 37 30 40 11 40 -18 0 -20 6 -20 58 0 95 -57 300 -114 406 -36
67 -44 76 -76 76 -34 0 -54 -22 -77 -85 -21 -58 -47 -75 -113 -75 -72 0 -76 9
-36 69 20 29 47 92 62 142 23 75 30 89 48 89 47 0 165 -34 231 -67 91 -46 166
-51 196 -13 32 41 20 87 -45 174 -88 117 -217 219 -292 231 -37 6 -43 3 -67
-25 -14 -17 -29 -46 -33 -65 -3 -20 -9 -37 -13 -40 -9 -5 -114 44 -124 59 -4
6 -5 31 -2 56 3 25 10 128 15 230 7 136 14 198 28 235 l18 50 47 0 c26 0 47 2
47 6 0 9 -89 49 -110 49 -13 0 -26 -14 -39 -42 -11 -24 -26 -51 -34 -60 -17
-21 -175 -71 -307 -98 -52 -11 -140 -28 -195 -40 -103 -21 -138 -18 -166 16
-7 9 -31 14 -65 14 -52 0 -55 -1 -79 -40 -25 -40 -25 -40 -90 -40 -64 0 -66 1
-108 45 -39 40 -48 45 -88 45 -38 0 -50 5 -77 33 -45 47 -73 104 -79 162 -9
89 -3 206 12 236 8 15 15 51 15 79 0 28 7 67 15 87 8 19 15 54 15 77 0 64 35
213 71 301 27 68 33 96 37 185 4 96 6 108 31 140 58 74 124 187 112 194 -3 2
-26 9 -51 16 -59 16 -72 27 -59 51 16 30 67 52 110 46 55 -7 110 -50 266 -204
201 -200 256 -242 728 -563 279 -189 316 -211 409 -239 100 -31 179 -28 327
13 241 67 406 134 741 302 208 105 328 154 373 154 58 0 190 -34 297 -76 60
-23 117 -38 160 -41 62 -5 70 -4 106 23 45 34 154 149 171 181 6 13 37 39 68
59 71 46 203 178 203 205 0 11 -7 22 -15 25 -16 7 -65 -20 -78 -43 -4 -7 -15
-13 -24 -13 -12 0 -14 7 -9 38 13 75 13 77 -13 77 -20 0 -30 -11 -54 -59 -26
-53 -31 -58 -42 -43 -14 20 -38 22 -53 4 -6 -6 -17 -37 -24 -66 -16 -64 -34
-75 -51 -32 -14 39 -35 40 -50 1 -13 -35 -30 -37 -72 -11 -42 25 -109 124
-101 148 9 27 66 52 148 63 126 18 193 62 168 110 -12 22 -45 21 -185 -2 -33
-5 -98 -13 -145 -18 -132 -12 -280 -69 -372 -142 -49 -39 -114 -76 -198 -114
-207 -94 -296 -120 -575 -169 -82 -14 -228 -42 -324 -61 -232 -45 -255 -45
-367 10 -110 54 -130 69 -351 258 -249 213 -426 388 -566 563 -245 304 -349
389 -555 451 -133 40 -180 63 -184 87 -2 18 -10 22 -43 22 -79 0 -253 132
-299 228 -34 69 -48 173 -35 262 17 121 23 133 93 166 33 16 66 29 72 29 6 0
17 7 24 15 7 8 20 15 29 15 25 0 58 42 71 89 7 28 26 57 54 84 24 23 45 51 48
62 2 12 13 21 26 23 30 5 28 25 -8 55 -16 14 -30 30 -30 35 0 14 35 42 53 42
16 0 37 53 37 93 0 10 4 26 10 36 8 15 25 69 67 214 5 17 1 18 -41 12 -51 -8
-59 2 -31 42 19 28 13 42 -35 76 -30 22 -40 35 -40 56 0 16 7 34 15 41 19 16
19 46 1 57 -29 17 -58 82 -52 116 11 54 9 64 -27 114 -25 35 -40 47 -56 46
-14 -2 -24 5 -30 20 -10 26 -56 77 -69 77 -6 0 -13 16 -16 35 -4 19 -11 35
-15 35 -4 0 -21 12 -37 26 -16 14 -54 42 -84 61 -53 33 -58 34 -130 29 -41 -2
-100 -9 -130 -15 -51 -10 -56 -9 -76 13 -43 46 -184 61 -206 22 -5 -9 -22 -16
-41 -16 -18 0 -44 -7 -59 -14 -16 -8 -61 -18 -100 -22 -103 -10 -144 -33 -173
-97 -12 -29 -33 -61 -45 -72 -12 -11 -35 -46 -51 -77 -21 -42 -35 -58 -49 -58
-12 0 -23 -6 -26 -14 -3 -8 -16 -17 -29 -20 -37 -9 -49 -40 -31 -75 15 -29 16
-51 2 -171 -9 -70 5 -98 63 -127 24 -12 46 -25 50 -28 3 -4 6 -113 7 -243 l0
-237 48 -150 c68 -215 91 -250 207 -308 71 -35 76 -45 78 -147 2 -102 -52
-150 -168 -150 -49 0 -65 4 -89 25 -34 28 -44 30 -72 13 -16 -10 -36 -7 -122
22 -93 32 -113 35 -213 35 -143 -1 -221 -22 -462 -126 -215 -92 -342 -131
-713 -220 -205 -48 -283 -63 -345 -63 l-80 -1 3 185 c4 268 13 322 44 255 9
-19 19 -25 44 -25 28 0 64 20 64 36 0 3 -14 32 -30 65 -18 35 -28 68 -25 79 4
12 -3 24 -22 38 l-27 20 3 233 2 234 -39 105 c-38 104 -39 105 -118 172 l-79
67 -65 -2 c-55 -2 -65 1 -68 16 -2 11 6 30 19 43 26 28 21 35 -29 49 -40 12
-37 7 -116 175 -92 195 -158 360 -161 402 -2 28 -12 49 -32 71 -28 29 -193
372 -193 400 0 7 -9 26 -20 42 -11 17 -20 39 -20 51 0 12 -12 39 -27 60 -14
21 -46 82 -70 134 -109 233 -216 441 -233 450 -31 17 -40 11 -40 -25z m3695
-995 c-3 -5 -10 -10 -16 -10 -5 0 -9 5 -9 10 0 6 7 10 16 10 8 0 12 -4 9 -10z
m-345 -97 c0 -10 -42 -53 -52 -53 -13 0 -9 22 9 42 16 18 43 25 43 11z m-2520
-803 c0 -13 -7 -20 -20 -20 -13 0 -20 7 -20 20 0 13 7 20 20 20 13 0 20 -7 20
-20z m204 -96 c26 -26 0 -46 -33 -25 -15 9 -9 41 8 41 5 0 17 -7 25 -16z
m3230 -570 c18 -7 12 -24 -10 -24 -8 0 -14 7 -14 15 0 17 2 18 24 9z m918
-3960 c87 -51 108 -71 62 -60 -50 13 -149 70 -152 89 -5 25 2 22 90 -29z
m-2923 -201 c-30 -27 -65 -60 -79 -75 -13 -16 -32 -28 -42 -28 -15 0 -48 35
-48 51 0 12 66 49 86 50 11 0 39 11 64 24 71 36 77 29 19 -22z m37 -321 c11
-6 27 -19 37 -30 16 -17 16 -20 2 -32 -12 -10 -24 -10 -60 0 -62 17 -108 6
-151 -37 -29 -28 -40 -34 -53 -26 -30 19 -25 52 10 71 18 9 46 29 63 44 27 23
38 27 82 24 28 -2 59 -8 70 -14z m-30 -141 c-19 -21 -109 -47 -126 -36 -32 20
28 54 99 55 43 0 44 -1 27 -19z"/>
<path d="M5355 2008 c-28 -29 -66 -76 -85 -105 -49 -73 -176 -210 -220 -238
-21 -13 -59 -30 -86 -39 -42 -12 -45 -15 -19 -15 39 -1 105 22 157 55 52 33
101 85 188 200 96 128 143 158 213 135 18 -6 78 -47 133 -91 121 -98 216 -147
299 -153 l60 -5 -53 19 c-78 27 -149 72 -217 135 -117 111 -193 154 -272 154
-44 0 -50 -4 -98 -52z"/>
<path d="M3380 1946 c0 -2 12 -12 28 -21 l27 -18 -19 21 c-17 20 -36 29 -36
18z"/>
<path d="M4735 1630 c11 -5 27 -9 35 -9 9 0 8 4 -5 9 -11 5 -27 9 -35 9 -9 0
-8 -4 5 -9z"/>
<path d="M4810 1610 c20 -13 93 -13 85 0 -3 6 -27 10 -53 10 -34 0 -43 -3 -32
-10z"/>
</g>
</svg>
